<svg xmlns="http://www.w3.org/2000/svg" viewBox="0 0 800 600" style="font-family: 'JetBrains Mono', monospace; background: #fff;">
  <rect width="800" height="600" fill="#ffffff"/>
  
  <text x="40" y="50" font-size="14" font-weight="bold" fill="#111" letter-spacing="1">RD-FIG-01 // COVERAGE MAP</text>
  <line x1="40" y1="65" x2="760" y2="65" stroke="#e5e5e5" stroke-width="2"/>

  <g transform="translate(560, 40)">
    <rect x="0" y="0" width="10" height="10" fill="#00cc00"/>
    <text x="18" y="9" font-size="10" fill="#666">ACTIVE</text>
    <rect x="80" y="0" width="10" height="10" fill="#e5e5e5"/>
    <text x="98" y="9" font-size="10" fill="#666">PLANNED</text>
  </g>

  <g transform="translate(40, 120)" font-size="12" fill="#666" font-weight="bold" letter-spacing="0.5">
    <text x="200" y="0">LAYER 1</text>
    <text x="350" y="0">LAYER 2</text>
    <text x="500" y="0">LAYER 3</text>
    <text x="650" y="0">LAYER 4</text>
  </g>

  <g transform="translate(40, 160)">
    <text x="0" y="25" font-size="12" font-weight="bold" fill="#000">RECURSION</text>
    <line x1="0" y1="45" x2="720" y2="45" stroke="#f0f0f0" stroke-width="1"/>
    
    <rect x="200" y="10" width="80" height="24" rx="2" fill="#e6ffec" stroke="#00cc00" stroke-width="1"/>
    <text x="240" y="26" font-size="10" fill="#006600" text-anchor="middle" font-weight="bold">PASSING</text>

    <rect x="350" y="10" width="80" height="24" rx="2" fill="#e6ffec" stroke="#00cc00" stroke-width="1"/>
    <text x="390" y="26" font-size="10" fill="#006600" text-anchor="middle" font-weight="bold">PASSING</text>

    <rect x="500" y="10" width="80" height="24" rx="2" fill="#fafafa" stroke="#e5e5e5" stroke-width="1"/>
    <text x="540" y="26" font-size="10" fill="#999" text-anchor="middle">PENDING</text>

    <rect x="650" y="10" width="80" height="24" rx="2" fill="#fafafa" stroke="#e5e5e5" stroke-width="1"/>
    <text x="690" y="26" font-size="10" fill="#999" text-anchor="middle">PLANNED</text>
  </g>

  <g transform="translate(40, 240)">
    <text x="0" y="25" font-size="12" font-weight="bold" fill="#000">DRIFT</text>
    <line x1="0" y1="45" x2="720" y2="45" stroke="#f0f0f0" stroke-width="1"/>

    <rect x="200" y="10" width="80" height="24" rx="2" fill="#e6ffec" stroke="#00cc00" stroke-width="1"/>
    <text x="240" y="26" font-size="10" fill="#006600" text-anchor="middle" font-weight="bold">PASSING</text>

    <rect x="350" y="10" width="80" height="24" rx="2" fill="#fafafa" stroke="#e5e5e5" stroke-width="1"/>
    <text x="390" y="26" font-size="10" fill="#999" text-anchor="middle">PENDING</text>

    <rect x="500" y="10" width="80" height="24" rx="2" fill="#fafafa" stroke="#e5e5e5" stroke-width="1"/>
    <text x="540" y="26" font-size="10" fill="#999" text-anchor="middle">PLANNED</text>

    <rect x="650" y="10" width="80" height="24" rx="2" fill="#fafafa" stroke="#e5e5e5" stroke-width="1"/>
    <text x="690" y="26" font-size="10" fill="#999" text-anchor="middle">PLANNED</text>
  </g>

  <g transform="translate(40, 320)">
    <text x="0" y="25" font-size="12" font-weight="bold" fill="#000">SAFETY</text>
    <line x1="0" y1="45" x2="720" y2="45" stroke="#f0f0f0" stroke-width="1"/>

    <rect x="200" y="10" width="80" height="24" rx="2" fill="#e6ffec" stroke="#00cc00" stroke-width="1"/>
    <text x="240" y="26" font-size="10" fill="#006600" text-anchor="middle" font-weight="bold">PASSING</text>

    <rect x="350" y="10" width="80" height="24" rx="2" fill="#e6ffec" stroke="#00cc00" stroke-width="1"/>
    <text x="390" y="26" font-size="10" fill="#006600" text-anchor="middle" font-weight="bold">PASSING</text>

    <rect x="500" y="10" width="80" height="24" rx="2" fill="#e6ffec" stroke="#00cc00" stroke-width="1"/>
    <text x="540" y="26" font-size="10" fill="#006600" text-anchor="middle" font-weight="bold">PASSING</text>

    <rect x="650" y="10" width="80" height="24" rx="2" fill="#fafafa" stroke="#e5e5e5" stroke-width="1"/>
    <text x="690" y="26" font-size="10" fill="#999" text-anchor="middle">PLANNED</text>
  </g>

  <g transform="translate(40, 400)">
    <text x="0" y="25" font-size="12" font-weight="bold" fill="#000">LEXICON</text>
    <line x1="0" y1="45" x2="720" y2="45" stroke="#f0f0f0" stroke-width="1"/>

    <rect x="200" y="10" width="80" height="24" rx="2" fill="#e6ffec" stroke="#00cc00" stroke-width="1"/>
    <text x="240" y="26" font-size="10" fill="#006600" text-anchor="middle" font-weight="bold">PASSING</text>

    <rect x="350" y="10" width="80" height="24" rx="2" fill="#fafafa" stroke="#e5e5e5" stroke-width="1"/>
    <text x="390" y="26" font-size="10" fill="#999" text-anchor="middle">PENDING</text>

    <rect x="500" y="10" width="80" height="24" rx="2" fill="#fafafa" stroke="#e5e5e5" stroke-width="1"/>
    <text x="540" y="26" font-size="10" fill="#999" text-anchor="middle">PLANNED</text>

    <rect x="650" y="10" width="80" height="24" rx="2" fill="#fafafa" stroke="#e5e5e5" stroke-width="1"/>
    <text x="690" y="26" font-size="10" fill="#999" text-anchor="middle">PLANNED</text>
  </g>

  <text x="40" y="550" font-size="10" fill="#999" letter-spacing="0.05em">DATA SOURCE: RD-REPO-004 // LIVE SNAPSHOT // VECTOR RENDER</text>
</svg>
